<svg preserveAspectRatio="none" overflow="visible" style="display: block;" width="13.5" height="15" viewBox="0 0 13.5 15" fill="none" xmlns="http://www.w3.org/2000/svg">
<path id="Vector" d="M5.25 10C5.66421 10 6 10.3358 6 10.75V14.25C6 14.6642 5.66421 15 5.25 15C4.83579 15 4.5 14.6642 4.5 14.25V13.25H0.75C0.335786 13.25 0 12.9142 0 12.5C0 12.0858 0.335786 11.75 0.75 11.75H4.5V10.75C4.5 10.3358 4.83579 10 5.25 10ZM12.75 11.75C13.1642 11.75 13.5 12.0858 13.5 12.5C13.5 12.9142 13.1642 13.25 12.75 13.25H8.25C7.83579 13.25 7.5 12.9142 7.5 12.5C7.5 12.0858 7.83579 11.75 8.25 11.75H12.75ZM9.25 5C9.66421 5 10 5.33579 10 5.75V6.75H12.75C13.1642 6.75 13.5 7.08579 13.5 7.5C13.5 7.91421 13.1642 8.25 12.75 8.25H10V9.25C10 9.66421 9.66421 10 9.25 10C8.83579 10 8.5 9.66421 8.5 9.25V5.75C8.5 5.33579 8.83579 5 9.25 5ZM6.75 6.75C7.16421 6.75 7.5 7.08579 7.5 7.5C7.5 7.91421 7.16421 8.25 6.75 8.25H0.75C0.335786 8.25 0 7.91421 0 7.5C0 7.08579 0.335786 6.75 0.75 6.75H6.75ZM5.25 0C5.66421 0 6 0.335786 6 0.75V4.25C6 4.66421 5.66421 5 5.25 5C4.83579 5 4.5 4.66421 4.5 4.25V3.25H0.75C0.335786 3.25 0 2.91421 0 2.5C0 2.08579 0.335786 1.75 0.75 1.75H4.5V0.75C4.5 0.335786 4.83579 0 5.25 0ZM12.75 1.75C13.1642 1.75 13.5 2.08579 13.5 2.5C13.5 2.91421 13.1642 3.25 12.75 3.25H8.40234C7.98813 3.25 7.65234 2.91421 7.65234 2.5C7.65234 2.08579 7.98813 1.75 8.40234 1.75H12.75Z" fill="#1B1B1B"/>
</svg>
