<svg preserveAspectRatio="none" overflow="visible" style="display: block;" width="16" height="16" viewBox="0 0 16 16" fill="none" xmlns="http://www.w3.org/2000/svg">
<g id="caret-downward">
<path id="Vector" d="M4.76562 6.5H11.2334C11.2523 6.50001 11.2711 6.5055 11.2871 6.51562C11.303 6.52574 11.3162 6.54059 11.3242 6.55762C11.3321 6.57459 11.3353 6.59371 11.333 6.6123C11.3307 6.63103 11.3225 6.64848 11.3105 6.66309L8.38672 10.2373C8.33982 10.2946 8.2808 10.3413 8.21387 10.373C8.14706 10.4047 8.07391 10.4209 8 10.4209C7.92594 10.4209 7.85208 10.4048 7.78516 10.373C7.7183 10.3413 7.65916 10.2946 7.6123 10.2373L4.68848 6.66309C4.67663 6.64853 4.66931 6.63093 4.66699 6.6123C4.6647 6.59362 4.66778 6.57465 4.67578 6.55762C4.68388 6.54051 4.6969 6.52575 4.71289 6.51562C4.72873 6.50565 4.7469 6.50007 4.76562 6.5Z" fill="#1B1B1B" stroke="#1B1B1B"/>
</g>
</svg>
