<svg preserveAspectRatio="none" overflow="visible" style="display: block;" width="19.5" height="24" viewBox="0 0 19.5 24" fill="none" xmlns="http://www.w3.org/2000/svg">
<g id="G Mark/Large">
<path id="Vector" d="M16.3671 2.10588L13.6508 0L11.4511 2.9018C8.11823 1.32654 4.0188 2.20537 1.68579 5.20666C-1.0305 8.68882 -0.397254 13.6965 3.10226 16.3993C4.43541 17.4274 5.9852 17.9746 7.55164 18.0575C10.1013 18.2067 12.6843 17.1455 14.3507 14.9899C16.7004 11.9886 16.5337 7.80998 14.1841 4.99109L16.3671 2.10588ZM11.6177 12.884C10.068 14.8572 7.20169 15.222 5.20197 13.6799C3.21891 12.1378 2.8523 9.26917 4.40208 7.29595C5.15198 6.33421 6.23516 5.72069 7.43499 5.57145C7.71829 5.53829 8.00158 5.52171 8.28488 5.53829C9.20142 5.58804 10.0846 5.91967 10.8179 6.48345C12.8009 8.04213 13.1675 10.9108 11.6177 12.884Z" fill="#343CED"/>
<g id="Group">
<path id="Vector_2" d="M16.5337 16.4325C16.0838 17.0128 15.5839 17.5269 15.034 18.0077C14.5007 18.4554 13.9174 18.87 13.3009 19.2182C12.7009 19.5498 12.051 19.8317 11.4011 20.0473C10.7512 20.2628 10.068 20.4121 9.38474 20.495C8.7015 20.5779 8.01826 20.6111 7.31836 20.5613C6.61846 20.5116 5.93522 20.3955 5.26864 20.2297L5.11866 20.7769L4.43542 23.546C5.30197 23.7782 6.18518 23.9108 7.08506 23.9771C7.11839 23.9771 7.16838 23.9771 7.20171 23.9771C8.06825 24.0269 8.95147 23.9937 9.80135 23.8942C10.7012 23.7782 11.6011 23.5792 12.4676 23.2973C13.3342 23.0154 14.1841 22.6506 14.984 22.2029C15.8005 21.7552 16.5671 21.208 17.2836 20.6111C18.0169 19.9975 18.6834 19.3011 19.2667 18.5383C19.35 18.4389 19.4167 18.3228 19.5 18.2067L16.7337 16.1672C16.6504 16.2501 16.6004 16.3496 16.5337 16.4325Z" fill="#343CED"/>
</g>
</g>
</svg>
