<svg preserveAspectRatio="none" overflow="visible" style="display: block;" width="15.8613" height="19.6188" viewBox="0 0 15.8613 19.6188" fill="none" xmlns="http://www.w3.org/2000/svg">
<g id="Group">
<path id="Vector" d="M13.3129 1.72145L11.1035 0L9.31427 2.37207C6.60333 1.08438 3.26887 1.80278 1.37121 4.25618C-0.838203 7.10266 -0.323124 11.1962 2.52336 13.4056C3.60774 14.246 4.86833 14.6933 6.14247 14.7611C8.21634 14.8831 10.3173 14.0156 11.6728 12.2534C13.584 9.80005 13.4484 6.38426 11.5372 4.07996L13.3129 1.72145ZM9.44981 10.532C8.18923 12.145 5.85782 12.4432 4.23125 11.1826C2.61825 9.92204 2.32004 7.57708 3.58063 5.96407C4.19059 5.17789 5.07165 4.67637 6.04758 4.55438C6.27801 4.52727 6.50844 4.51372 6.73887 4.52727C7.48438 4.56794 8.20278 4.83903 8.79919 5.29989C10.4122 6.57403 10.7104 8.91899 9.44981 10.532Z" fill="#343CED"/>
<g id="Group_2">
<path id="Vector_2" d="M13.4485 13.4327C13.0826 13.9071 12.6759 14.3273 12.2286 14.7204C11.7949 15.0864 11.3204 15.4252 10.8189 15.7099C10.331 15.981 9.80232 16.2114 9.27369 16.3876C8.74506 16.5638 8.18931 16.6858 7.63357 16.7536C7.07783 16.8214 6.52209 16.8485 5.95279 16.8078C5.38349 16.7672 4.82775 16.6723 4.28556 16.5367L4.16357 16.984L3.60783 19.2477C4.31267 19.4374 5.03107 19.5459 5.76302 19.6001C5.79013 19.6001 5.8308 19.6001 5.85791 19.6001C6.56275 19.6407 7.28115 19.6136 7.97244 19.5323C8.70439 19.4374 9.43635 19.2748 10.1412 19.0443C10.846 18.8139 11.5373 18.5157 12.188 18.1497C12.8521 17.7838 13.4756 17.3365 14.0585 16.8485C14.6549 16.347 15.1971 15.7777 15.6715 15.1541C15.7393 15.0728 15.7935 14.9779 15.8613 14.883L13.6112 13.2158C13.5434 13.2836 13.5028 13.3649 13.4485 13.4327Z" fill="#343CED"/>
</g>
</g>
</svg>
