<svg preserveAspectRatio="none" overflow="visible" style="display: block;" width="16" height="16" viewBox="0 0 16 16" fill="none" xmlns="http://www.w3.org/2000/svg">
<g id="Icons/16/search">
<g id="Vector">
<path fill-rule="evenodd" clip-rule="evenodd" d="M7.33333 2.75C4.80203 2.75 2.75 4.80203 2.75 7.33333C2.75 9.86464 4.80203 11.9167 7.33333 11.9167C9.86464 11.9167 11.9167 9.86464 11.9167 7.33333C11.9167 4.80203 9.86464 2.75 7.33333 2.75ZM1.25 7.33333C1.25 3.9736 3.9736 1.25 7.33333 1.25C10.6931 1.25 13.4167 3.9736 13.4167 7.33333C13.4167 10.6931 10.6931 13.4167 7.33333 13.4167C3.9736 13.4167 1.25 10.6931 1.25 7.33333Z" fill="#727272"/>
<path fill-rule="evenodd" clip-rule="evenodd" d="M10.5697 10.5696C10.8626 10.2768 11.3374 10.2768 11.6303 10.5696L14.5303 13.4696C14.8232 13.7625 14.8232 14.2374 14.5303 14.5303C14.2374 14.8232 13.7626 14.8232 13.4697 14.5303L10.5697 11.6303C10.2768 11.3374 10.2768 10.8625 10.5697 10.5696Z" fill="#727272"/>
</g>
</g>
</svg>
